<svg width="76" height="70" viewBox="0 0 76 70" fill="none" xmlns="http://www.w3.org/2000/svg">
<rect width="70" height="70" rx="8" fill="#EBF9FE"/>
<g filter="url(#filter0_d_8918_953)">
<path d="M17.6465 18C17.6465 18 25.636 21.5877 35.8011 21.5877C45.9663 21.5877 53.0364 18 53.0364 18V32.159H17.6465V18Z" fill="#1E588E"/>
<path d="M17.6465 18.957C17.6465 18.957 25.636 22.5447 35.8011 22.5447C45.9663 22.5447 53.0364 18.957 53.0364 18.957V33.116H17.6465V18.957Z" fill="#243560"/>
<path d="M33.2344 29.8203L23.1946 44.5422L7.7206 32.7233L12.7405 25.3624L17.7604 18.0015L33.2344 29.8203Z" fill="#2874BA"/>
<path d="M37.793 29.8188L47.8328 44.5407L63.3067 32.7218L53.267 18L37.793 29.8188Z" fill="#2874BA"/>
<path d="M63.3067 32.7218L47.8328 44.5407L47.0431 43.3828L61.8027 32.1096L63.3067 32.7218Z" fill="#2874BA"/>
<path d="M53.267 18L37.793 29.8188L38.5826 30.9768L53.3422 19.7035L53.267 18Z" fill="#2874BA"/>
<path d="M34.1758 30.7012L24.136 45.423L8.66201 33.6042L13.6819 26.2433L18.7018 18.8823L34.1758 30.7012Z" fill="#2D4071"/>
<path d="M37.4697 31.9238L45.8422 44.2009L61.3162 32.382L57.13 26.2435L52.9437 20.105L37.4697 31.9238Z" fill="#2D4071"/>
<path d="M7.72075 32.7219L23.1947 44.5407L23.9844 43.3828L9.22475 32.1096L7.72075 32.7219Z" fill="#2874BA"/>
<path d="M17.761 17.9998L33.235 29.8187L32.4453 30.9766L17.6857 19.7033L17.761 17.9998Z" fill="#2874BA"/>
<circle cx="35.5634" cy="37.9042" r="14.5683" fill="#FFDE69" stroke="#6E5600"/>
<mask id="mask0_8918_953" style="mask-type:alpha" maskUnits="userSpaceOnUse" x="24" y="28" width="24" height="23">
<circle cx="36.2027" cy="39.2652" r="11.2339" fill="#C28B37"/>
</mask>
<g mask="url(#mask0_8918_953)">
<circle cx="35.605" cy="38.0679" r="11.2339" fill="#C09525"/>
</g>
<path d="M35.6826 24.4434C43.3359 24.4434 49.7422 30.4685 49.7422 38.1445C49.7419 45.8203 43.3358 51.8447 35.6826 51.8447C28.0294 51.8447 21.6233 45.8203 21.623 38.1445C21.623 30.4685 28.0293 24.4434 35.6826 24.4434Z" fill="#6F5600" stroke="#D1A635" stroke-width="6.83155"/>
<mask id="mask1_8918_953" style="mask-type:alpha" maskUnits="userSpaceOnUse" x="25" y="28" width="22" height="22">
<circle cx="36.1739" cy="39.2198" r="10.4033" fill="#C28B37"/>
</mask>
<g mask="url(#mask1_8918_953)">
<circle cx="35.6192" cy="38.1123" r="10.4033" fill="#936A00"/>
</g>
<path d="M37.623 35.4922L37.8662 35.9629L38.3916 36.0273L42.1201 36.4795L39.5498 39.2812L39.2168 39.6445L39.3008 40.1289L40.0225 44.2822L36.1191 42.3867L35.6826 42.1738L35.2451 42.3867L31.3438 44.2812L32.0723 40.1309L32.1582 39.6445L31.8242 39.2812L29.2471 36.4795L32.9727 36.0273L33.499 35.9629L33.7412 35.4922L35.6816 31.7188L37.623 35.4922Z" fill="url(#paint0_linear_8918_953)" stroke="#7E6200" stroke-width="2"/>
</g>
<defs>
<filter id="filter0_d_8918_953" x="6.93721" y="17.2165" width="68.1219" height="49.7957" filterUnits="userSpaceOnUse" color-interpolation-filters="sRGB">
<feFlood flood-opacity="0" result="BackgroundImageFix"/>
<feColorMatrix in="SourceAlpha" type="matrix" values="0 0 0 0 0 0 0 0 0 0 0 0 0 0 0 0 0 0 127 0" result="hardAlpha"/>
<feOffset dx="5.48449" dy="5.48449"/>
<feGaussianBlur stdDeviation="3.13399"/>
<feComposite in2="hardAlpha" operator="out"/>
<feColorMatrix type="matrix" values="0 0 0 0 0 0 0 0 0 0 0 0 0 0 0 0 0 0 0.3 0"/>
<feBlend mode="normal" in2="BackgroundImageFix" result="effect1_dropShadow_8918_953"/>
<feBlend mode="normal" in="SourceGraphic" in2="effect1_dropShadow_8918_953" result="shape"/>
</filter>
<linearGradient id="paint0_linear_8918_953" x1="35.6823" y1="29.5332" x2="35.6823" y2="46.0366" gradientUnits="userSpaceOnUse">
<stop stop-color="#FFF5D3"/>
<stop offset="1" stop-color="#FFE178"/>
</linearGradient>
</defs>
</svg>
