<svg width="51" height="50" viewBox="0 0 51 50" fill="none" xmlns="http://www.w3.org/2000/svg">
<g clip-path="url(#clip0_8831_734)">
<path d="M25.4335 50.8405H17.9236V34.6165C17.2852 35.4883 16.9217 35.8866 16.669 36.3424C14.1908 40.7149 11.7614 45.1138 9.22556 49.4509C8.83987 50.1103 7.97982 50.9113 7.3104 50.929C5.36864 50.9909 2.5624 51.0086 0.616211 51.0086C0.616211 51.0086 4.5352 43.2507 5.8031 41.0468C7.82466 37.5196 9.77085 33.9482 11.9343 30.5052C14.142 26.9957 17.2542 25.792 20.8894 26.7346C23.3986 27.3852 25.3626 29.4032 25.4025 31.8948C25.5089 38.1525 25.4379 44.4146 25.4379 50.8405H25.4335Z" fill="white"/>
<path d="M21.1333 0.172477V6.99665C17.5823 6.99665 14.0579 6.99665 10.5379 6.99665C9.94826 6.99665 9.31431 6.86831 8.77788 7.03205C8.11733 7.23563 7.53214 7.6826 6.91592 8.02337C7.54544 8.35086 8.16166 8.92618 8.80892 8.96601C10.8704 9.09435 12.9451 8.96601 15.0066 9.04124C19.3334 9.19614 22.5697 12.4223 22.6938 16.631C22.818 20.822 19.759 24.4067 15.441 24.6058C10.5866 24.8271 5.71452 24.6545 0.682788 24.6545V17.8658C3.22303 17.8658 5.84751 17.8658 8.47199 17.8658C10.3916 17.8658 12.3156 17.9454 14.2263 17.8126C14.7761 17.7728 15.2859 17.1267 15.8134 16.7594C15.2947 16.454 14.7938 15.9185 14.2618 15.892C12.2757 15.7858 10.2763 15.8698 8.28136 15.8433C3.4048 15.7769 -0.0176644 12.5064 6.85893e-05 7.94371C0.0178016 3.51375 3.40923 0.256562 8.21043 0.185754C12.4752 0.123796 16.74 0.172477 21.1333 0.172477Z" fill="white"/>
<path d="M49.4351 25.6309V32.4551C45.8841 32.4551 42.3596 32.4551 38.8396 32.4551C38.25 32.4551 37.6161 32.3268 37.0796 32.4905C36.4191 32.6941 35.8339 33.1411 35.2177 33.4818C35.8472 33.8093 36.4634 34.3846 37.1107 34.4245C39.1721 34.5528 41.2469 34.4245 43.3083 34.4997C47.6352 34.6546 50.8715 37.8808 50.9956 42.0895C51.1197 46.2805 48.0608 49.8652 43.7428 50.0643C38.8884 50.2856 34.0163 50.113 28.9845 50.113V43.3242C31.5248 43.3242 34.1493 43.3242 36.7737 43.3242C38.6933 43.3242 40.6174 43.4039 42.5281 43.2711C43.0778 43.2313 43.5876 42.5852 44.1152 42.2178C43.5965 41.9125 43.0956 41.377 42.5636 41.3504C40.5775 41.2442 38.5781 41.3283 36.5831 41.3018C31.7066 41.2354 28.2841 37.9649 28.3018 33.4066C28.3196 28.9766 31.711 25.7195 36.5122 25.6486C40.777 25.5867 45.0417 25.6354 49.4351 25.6354V25.6309Z" fill="white"/>
<path d="M51.0004 4.46483V23.5699C49.1207 23.5787 47.2321 23.561 45.3391 23.561V6.50943C43.9825 11.3465 42.8033 15.6482 41.5664 19.9232C40.6798 22.9857 38.6937 24.1983 36.2111 23.3486C34.6594 22.8175 33.9412 21.3792 33.458 19.6311C32.2832 15.4003 31.0951 11.1739 29.7607 6.38994V23.4061H24.1704C24.1704 16.9094 24.0729 10.5101 24.2147 4.11964C24.2768 1.38909 26.152 -0.505039 28.5105 -0.885635C31.6315 -1.38572 33.8703 -0.093465 34.7703 3.00883C35.5904 5.8456 36.2066 8.7753 36.9115 11.6607C37.08 12.3379 37.2662 13.0017 37.5942 14.2541C38.4632 10.6296 39.1902 7.545 39.935 4.46041C40.9059 0.437599 42.6038 -1.09806 45.9154 -0.96972C48.766 -0.859082 50.659 1.15454 51.0004 4.46483Z" fill="white"/>
</g>
<defs>
<clipPath id="clip0_8831_734">
<rect width="51" height="52" fill="white" transform="translate(0 -0.992188)"/>
</clipPath>
</defs>
</svg>
