<svg width="52" height="53" viewBox="0 0 52 53" fill="none" xmlns="http://www.w3.org/2000/svg">
<g clip-path="url(#clip0_8831_215)">
<path d="M25.9335 52.3317H18.4236V36.1077C17.7852 36.9795 17.4217 37.3778 17.169 37.8336C14.6908 42.2061 12.2614 46.6051 9.72556 50.9421C9.33987 51.6015 8.47982 52.4025 7.8104 52.4202C5.86864 52.4822 3.0624 52.4999 1.11621 52.4999C1.11621 52.4999 5.0352 44.7419 6.3031 42.538C8.32466 39.0108 10.2709 35.4394 12.4343 31.9964C14.642 28.4869 17.7542 27.2832 21.3894 28.2258C23.8986 28.8764 25.8626 30.8944 25.9025 33.386C26.0089 39.6437 25.9379 45.9058 25.9379 52.3317H25.9335Z" fill="#E99010"/>
<path d="M21.6333 1.66369V8.48786C18.0823 8.48786 14.5579 8.48786 11.0379 8.48786C10.4483 8.48786 9.81431 8.35952 9.27788 8.52326C8.61733 8.72684 8.03214 9.17382 7.41592 9.51458C8.04544 9.84207 8.66166 10.4174 9.30892 10.4572C11.3704 10.5856 13.4451 10.4572 15.5066 10.5325C19.8334 10.6873 23.0697 13.9136 23.1938 18.1222C23.318 22.3132 20.259 25.8979 15.941 26.097C11.0866 26.3183 6.21452 26.1457 1.18279 26.1457V19.357C3.72303 19.357 6.34751 19.357 8.97199 19.357C10.8916 19.357 12.8156 19.4366 14.7263 19.3039C15.2761 19.264 15.7859 18.6179 16.3134 18.2506C15.7947 17.9452 15.2938 17.4097 14.7618 17.3832C12.7757 17.277 10.7763 17.361 8.78136 17.3345C3.9048 17.2681 0.482336 13.9976 0.500069 9.43492C0.517802 5.00496 3.90923 1.74777 8.71043 1.67696C12.9752 1.61501 17.24 1.66369 21.6333 1.66369Z" fill="#E99010"/>
<path d="M49.9351 27.1241V33.9483C46.3841 33.9483 42.8596 33.9483 39.3396 33.9483C38.75 33.9483 38.1161 33.8199 37.5796 33.9837C36.9191 34.1873 36.3339 34.6342 35.7177 34.975C36.3472 35.3025 36.9634 35.8778 37.6107 35.9176C39.6721 36.046 41.7469 35.9176 43.8083 35.9929C48.1352 36.1478 51.3715 39.374 51.4956 43.5827C51.6197 47.7736 48.5608 51.3583 44.2428 51.5575C39.3884 51.7787 34.5163 51.6061 29.4845 51.6061V44.8174C32.0248 44.8174 34.6493 44.8174 37.2737 44.8174C39.1933 44.8174 41.1174 44.897 43.0281 44.7643C43.5778 44.7244 44.0876 44.0783 44.6152 43.711C44.0965 43.4056 43.5956 42.8701 43.0636 42.8436C41.0775 42.7374 39.0781 42.8215 37.0831 42.7949C32.2066 42.7285 28.7841 39.4581 28.8018 34.8998C28.8196 30.4698 32.211 27.2126 37.0122 27.1418C41.277 27.0799 45.5417 27.1285 49.9351 27.1285V27.1241Z" fill="#E99010"/>
<path d="M51.5004 5.95702V25.062C49.6207 25.0709 47.7321 25.0532 45.8391 25.0532V8.00162C44.4825 12.8387 43.3033 17.1403 42.0664 21.4154C41.1798 24.4779 39.1937 25.6905 36.7111 24.8408C35.1594 24.3097 34.4412 22.8714 33.958 21.1233C32.7832 16.8925 31.5951 12.6661 30.2607 7.88213V24.8983H24.6704C24.6704 18.4016 24.5729 12.0023 24.7147 5.61183C24.7768 2.88128 26.652 0.987148 29.0105 0.606553C32.1315 0.106467 34.3703 1.39872 35.2703 4.50102C36.0904 7.33779 36.7066 10.2675 37.4115 13.1529C37.58 13.83 37.7662 14.4939 38.0942 15.7463C38.9632 12.1218 39.6902 9.03719 40.435 5.95259C41.4059 1.92979 43.1038 0.394127 46.4154 0.522467C49.266 0.633106 51.159 2.64672 51.5004 5.95702Z" fill="#E99010"/>
</g>
<defs>
<clipPath id="clip0_8831_215">
<rect width="51" height="52" fill="white" transform="translate(0.5 0.5)"/>
</clipPath>
</defs>
</svg>
