<svg width="440" height="280" viewBox="0 0 440 280" fill="none" xmlns="http://www.w3.org/2000/svg">
<rect opacity="0.1" width="440" height="280" fill="#FE9A1A"/>
<path d="M217.757 65.6405C220.483 65.0096 223.909 65.8929 225.29 68.5113C228.748 75.7923 232.306 83.0291 235.821 90.2785C236.483 91.818 237.972 92.8969 239.625 93.0988C247.209 94.2471 254.805 95.2882 262.377 96.4554C265.039 96.8403 267.538 98.5059 268.598 101.023C269.904 103.774 269.349 107.263 267.147 109.39C262.093 114.424 256.976 119.403 251.878 124.393C250.351 125.8 248.521 127.523 249.001 129.832C250.269 137.637 251.739 145.416 253.007 153.221C253.531 156.407 252.036 159.915 249.064 161.36C246.982 162.653 244.319 162.584 242.212 161.404C235.417 157.902 228.666 154.331 221.89 150.798C220.577 150.066 218.937 149.763 217.549 150.47C210.413 154.066 203.403 157.915 196.261 161.499C192.507 163.442 187.687 161.543 185.92 157.808C184.778 155.77 185.289 153.404 185.687 151.246C186.911 144.324 188.097 137.397 189.302 130.475C189.668 128.898 189.314 127.15 188.122 126.015C182.45 120.317 176.601 114.797 170.961 109.074C166.998 105.036 169.812 97.427 175.295 96.5816C183.081 95.4585 190.898 94.531 198.69 93.4143C200.274 93.2376 201.744 92.2786 202.438 90.8275C205.921 83.7799 209.29 76.6693 212.766 69.6154C213.713 67.6154 215.593 66.1263 217.757 65.6405Z" fill="#FE9A1A"/>
<path d="M210.861 157.359C213.713 155.788 216.616 154.311 219.436 152.684C222.553 154.223 225.657 155.781 228.767 157.346C227.979 161.144 228.786 165.145 230.9 168.381C234.238 173.599 238.869 177.795 243.146 182.218C246.061 182.262 249.185 181.902 251.866 183.341C255.759 185.196 258.163 189.429 258.093 193.707C232.37 193.713 206.641 193.713 180.917 193.707C180.854 189.562 183.088 185.454 186.798 183.524C189.637 181.852 193.044 182.256 196.192 182.237C201.032 178.041 206.167 173.889 209.436 168.28C211.391 165.012 211.827 161.018 210.861 157.359Z" fill="#FE9A1A"/>
<path d="M177.365 196.899C205.296 196.748 233.247 196.823 261.178 196.861C266.396 197.095 270.996 201.631 271.317 206.843C271.387 209.127 271.532 211.442 271.229 213.72C270.8 214.698 269.589 214.452 268.743 214.54C237.815 214.521 206.88 214.54 175.951 214.528C173.472 214.458 170.973 214.704 168.506 214.395C168.33 214.231 167.97 213.897 167.787 213.733C167.497 211.026 167.522 208.25 167.863 205.549C168.753 201.038 172.778 197.341 177.365 196.899Z" fill="#FE9A1A"/>
</svg>
