<svg width="30" height="30" viewBox="0 0 30 30" fill="none" xmlns="http://www.w3.org/2000/svg">
<g clip-path="url(#clip0_8831_712)">
<path d="M15 0.0078125C10.05 0.0078125 6 4.05781 6 9.00781C6 13.9578 15 25.5078 15 25.5078C15 25.5078 24 13.9578 24 9.00781C24 4.05781 19.95 0.0078125 15 0.0078125ZM15 12.0078C13.35 12.0078 12 10.6578 12 9.00781C12 7.35781 13.35 6.00781 15 6.00781C16.65 6.00781 18 7.35781 18 9.00781C18 10.6578 16.65 12.0078 15 12.0078Z" fill="#E99010"/>
<path d="M24.45 16.6578C24 17.5578 23.55 18.4578 22.95 19.3578C25.5 20.2578 27 21.4578 27 22.5078C27 24.3078 22.2 27.0078 15 27.0078C7.8 27.0078 3 24.3078 3 22.5078C3 21.4578 4.5 20.2578 7.05 19.2078C6.45 18.3078 6 17.4078 5.55 16.5078C2.1 18.0078 0 20.1078 0 22.5078C0 26.7078 6.3 30.0078 14.7 30.0078C22.2 30.0078 30 27.4578 30 22.5078C30 20.1078 27.9 18.0078 24.45 16.6578Z" fill="#E99010"/>
</g>
<defs>
<clipPath id="clip0_8831_712">
<rect width="30" height="30" fill="white" transform="translate(0 0.0078125)"/>
</clipPath>
</defs>
</svg>
