<svg width="70" height="70" viewBox="0 0 70 70" fill="none" xmlns="http://www.w3.org/2000/svg">
<rect width="70" height="70" rx="8" fill="#EBF9FE"/>
<g filter="url(#filter0_d_8918_1008)">
<path d="M33.9121 18.7441C34.639 18.1199 35.7134 18.12 36.4404 18.7441C37.1492 19.3528 38.1052 19.5885 39.0156 19.3789C39.9493 19.1641 40.9003 19.6633 41.2539 20.5537C41.5986 21.4221 42.3357 22.075 43.2393 22.3125C44.166 22.5562 44.7757 23.4406 44.6748 24.3936C44.5766 25.3224 44.9257 26.2429 45.6152 26.873C46.3227 27.5195 46.4521 28.5859 45.9199 29.3828C45.4013 30.1597 45.2828 31.1372 45.6006 32.0156C45.9264 32.9167 45.5456 33.9206 44.7041 34.3789C43.8837 34.8257 43.3242 35.6359 43.1973 36.5615C43.0671 37.5108 42.2637 38.2234 41.3057 38.2383C40.3715 38.2527 39.4995 38.7101 38.957 39.4707C38.4006 40.2507 37.3581 40.5072 36.5029 40.0752C35.6692 39.6538 34.6844 39.6539 33.8506 40.0752C32.9953 40.5074 31.952 40.2509 31.3955 39.4707C30.8531 38.7102 29.9819 38.2527 29.0479 38.2383C28.0897 38.2235 27.2854 37.5109 27.1553 36.5615C27.0284 35.636 26.4689 34.8257 25.6484 34.3789C24.8072 33.9206 24.4263 32.9165 24.752 32.0156C25.0697 31.1371 24.9514 30.1597 24.4326 29.3828C23.9005 28.5859 24.03 27.5195 24.7373 26.873C25.4269 26.2429 25.7759 25.3225 25.6777 24.3936C25.5769 23.4406 26.1874 22.5561 27.1143 22.3125C28.0176 22.0749 28.754 21.4219 29.0986 20.5537C29.4523 19.6631 30.4041 19.1639 31.3379 19.3789C32.2482 19.5884 33.2034 19.3528 33.9121 18.7441Z" fill="url(#paint0_linear_8918_1008)" stroke="#665000"/>
<circle cx="35.096" cy="29.3333" r="8.78638" fill="#785E03"/>
<mask id="mask0_8918_1008" style="mask-type:alpha" maskUnits="userSpaceOnUse" x="27" y="21" width="17" height="18">
<circle cx="35.5767" cy="30.2105" r="8.28474" fill="#C28B37"/>
</mask>
<g mask="url(#mask0_8918_1008)">
<circle cx="35.096" cy="29.3333" r="8.78638" fill="#8A6B1B"/>
</g>
<circle cx="35.3377" cy="29.2518" r="7.09359" fill="#B3881C"/>
<path d="M37.5488 26.3809L40.2666 26.7207L42.1562 26.957L40.8887 28.3789L38.9775 30.5225L39.5039 33.6377L39.832 35.5801L38.0713 34.6992L35.2695 33.2979L32.4678 34.6992L30.7031 35.5811L31.0352 33.6367L31.5654 30.5215L29.6514 28.3799L28.3799 26.958L30.2725 26.7207L32.9893 26.3809L34.375 23.6113L35.2695 21.8223L37.5488 26.3809Z" fill="url(#paint1_linear_8918_1008)" stroke="#AE8620" stroke-width="2"/>
<path d="M23.5684 40.0547L23.5684 50.2114L13.2504 50.2114L16.2785 45.1331L13.2504 40.0547L23.5684 40.0547Z" fill="#983535"/>
<path d="M46.1396 40.0547L46.1396 50.2114L56.4576 50.2114L53.4295 45.1331L56.4576 40.0547L46.1396 40.0547Z" fill="#983535"/>
<path d="M20.667 42.7954L23.5689 40.0547V52.4685H20.667V42.7954Z" fill="#752727"/>
<path d="M49.041 42.9566L46.1391 40.0547V52.4685H49.041V42.9566Z" fill="#752727"/>
<rect x="20.667" y="42.957" width="28.3744" height="9.51186" fill="#CE4444"/>
</g>
<defs>
<filter id="filter0_d_8918_1008" x="9.25" y="17.7754" width="51.208" height="42.6934" filterUnits="userSpaceOnUse" color-interpolation-filters="sRGB">
<feFlood flood-opacity="0" result="BackgroundImageFix"/>
<feColorMatrix in="SourceAlpha" type="matrix" values="0 0 0 0 0 0 0 0 0 0 0 0 0 0 0 0 0 0 127 0" result="hardAlpha"/>
<feOffset dy="4"/>
<feGaussianBlur stdDeviation="2"/>
<feComposite in2="hardAlpha" operator="out"/>
<feColorMatrix type="matrix" values="0 0 0 0 0 0 0 0 0 0 0 0 0 0 0 0 0 0 0.25 0"/>
<feBlend mode="normal" in2="BackgroundImageFix" result="effect1_dropShadow_8918_1008"/>
<feBlend mode="normal" in="SourceGraphic" in2="effect1_dropShadow_8918_1008" result="shape"/>
</filter>
<linearGradient id="paint0_linear_8918_1008" x1="35.1765" y1="17" x2="35.1765" y2="41.8276" gradientUnits="userSpaceOnUse">
<stop stop-color="#FFE175"/>
<stop offset="1" stop-color="#FFD12E"/>
</linearGradient>
<linearGradient id="paint1_linear_8918_1008" x1="35.2695" y1="24.0586" x2="35.2695" y2="33.8046" gradientUnits="userSpaceOnUse">
<stop stop-color="white"/>
<stop offset="1" stop-color="#FFE86D"/>
</linearGradient>
</defs>
</svg>
