<svg width="24" height="24" viewBox="0 0 24 24" fill="none" xmlns="http://www.w3.org/2000/svg">
<g clip-path="url(#clip0_8907_5119)">
<path d="M11.9572 24.0075L11.2601 23.41C10.2992 22.6054 1.9082 15.3586 1.9082 10.0578C1.9082 4.5079 6.40731 0.00878906 11.9572 0.00878906C17.5071 0.00878906 22.0062 4.5079 22.0062 10.0578C22.0062 15.3587 13.6153 22.6054 12.6583 23.414L11.9572 24.0075ZM11.9572 2.18168C7.60942 2.1866 4.08606 5.70996 4.08114 10.0578C4.08114 13.3879 9.24358 18.7076 11.9572 21.1424C14.6709 18.7066 19.8333 13.3838 19.8333 10.0578C19.8284 5.70996 16.3051 2.18665 11.9572 2.18168Z" fill="white"/>
<path d="M11.958 14.0409C9.75802 14.0409 7.97461 12.2575 7.97461 10.0576C7.97461 7.85762 9.75802 6.07422 11.958 6.07422C14.1579 6.07422 15.9413 7.85762 15.9413 10.0576C15.9413 12.2575 14.1579 14.0409 11.958 14.0409ZM11.958 8.06584C10.858 8.06584 9.96628 8.95755 9.96628 10.0575C9.96628 11.1575 10.858 12.0492 11.958 12.0492C13.0579 12.0492 13.9496 11.1575 13.9496 10.0575C13.9496 8.95755 13.058 8.06584 11.958 8.06584Z" fill="white"/>
</g>
<defs>
<clipPath id="clip0_8907_5119">
<rect width="24" height="24" fill="white"/>
</clipPath>
</defs>
</svg>
