<svg width="30" height="30" viewBox="0 0 30 30" fill="none" xmlns="http://www.w3.org/2000/svg">
<g clip-path="url(#clip0_8831_723)">
<path d="M22.8077 19.8443C21.8276 18.8766 20.604 18.8766 19.6301 19.8443C18.8872 20.5809 18.1444 21.3176 17.414 22.0667C17.2142 22.2727 17.0456 22.3164 16.8022 22.179C16.3215 21.9169 15.8096 21.7046 15.3476 21.4174C13.1939 20.0628 11.3897 18.321 9.79159 16.3608C8.99877 15.387 8.29334 14.3444 7.80017 13.1708C7.70028 12.9336 7.71901 12.7775 7.91254 12.584C8.65542 11.8661 9.37957 11.1294 10.11 10.3928C11.1275 9.36899 11.1275 8.17039 10.1037 7.14034C9.52316 6.55353 8.94258 5.9792 8.36201 5.39238C7.76271 4.79308 7.16965 4.18754 6.56411 3.59448C5.584 2.63934 4.36043 2.63934 3.38657 3.60072C2.63744 4.33736 1.91953 5.09273 1.15792 5.81689C0.452489 6.48486 0.0966536 7.30265 0.021741 8.25779C-0.0968706 9.81223 0.283935 11.2793 0.820809 12.7088C1.91953 15.6679 3.59258 18.2961 5.62146 20.7058C8.36201 23.9645 11.6332 26.5427 15.46 28.403C17.183 29.2396 18.9684 29.8826 20.9099 29.9887C22.2458 30.0636 23.407 29.7265 24.3371 28.684C24.9739 27.9723 25.6918 27.323 26.366 26.6426C27.3648 25.6313 27.3711 24.4077 26.3785 23.4089C25.1924 22.2165 24 21.0304 22.8077 19.8443Z" fill="#E99010"/>
<path d="M21.6148 14.8693L23.9183 14.476C23.5562 12.3598 22.5574 10.4432 21.0404 8.92002C19.4361 7.31564 17.4072 6.30432 15.1723 5.99219L14.8477 8.30824C16.5769 8.5517 18.1501 9.33204 19.3924 10.5743C20.566 11.748 21.3338 13.2337 21.6148 14.8693Z" fill="#E99010"/>
<path d="M25.2176 4.85683C22.5582 2.19744 19.1933 0.518146 15.4789 0L15.1543 2.31605C18.3631 2.76552 21.2722 4.22008 23.5695 6.51115C25.7482 8.68986 27.1778 11.4429 27.6959 14.4706L29.9995 14.0773C29.3939 10.5689 27.7396 7.38513 25.2176 4.85683Z" fill="#E99010"/>
</g>
<defs>
<clipPath id="clip0_8831_723">
<rect width="30" height="30" fill="white"/>
</clipPath>
</defs>
</svg>
