<svg width="24" height="24" viewBox="0 0 24 24" fill="none" xmlns="http://www.w3.org/2000/svg">
<path d="M18.875 6.6H18.25V4.2C18.25 3.5382 17.6892 3 17 3H7C6.31083 3 5.75 3.5382 5.75 4.2V6.6H5.125C3.40188 6.6 2 7.9458 2 9.6V15.6C2 16.5926 2.84104 17.4 3.875 17.4H5.75V19.8C5.75 20.4618 6.31083 21 7 21H17C17.6892 21 18.25 20.4618 18.25 19.8V17.4H20.125C21.159 17.4 22 16.5926 22 15.6V9.6C22 7.9458 20.5981 6.6 18.875 6.6ZM7 4.2H17V6.6H7V4.2ZM7 19.8V13.8H17V19.8H7ZM20.75 15.6C20.75 15.9308 20.4698 16.2 20.125 16.2H18.25V13.8H18.875C19.2204 13.8 19.5 13.5314 19.5 13.2C19.5 12.8686 19.2204 12.6 18.875 12.6H5.125C4.77958 12.6 4.5 12.8686 4.5 13.2C4.5 13.5314 4.77958 13.8 5.125 13.8H5.75V16.2H3.875C3.53021 16.2 3.25 15.9308 3.25 15.6V9.6C3.25 8.6074 4.09104 7.8 5.125 7.8H18.875C19.909 7.8 20.75 8.6074 20.75 9.6V15.6ZM15.125 15.6C15.125 15.9314 14.8454 16.2 14.5 16.2H9.5C9.15458 16.2 8.875 15.9314 8.875 15.6C8.875 15.2686 9.15458 15 9.5 15H14.5C14.8454 15 15.125 15.2686 15.125 15.6ZM15.125 18C15.125 18.3314 14.8454 18.6 14.5 18.6H9.5C9.15458 18.6 8.875 18.3314 8.875 18C8.875 17.6686 9.15458 17.4 9.5 17.4H14.5C14.8454 17.4 15.125 17.6686 15.125 18ZM19.5 9.6C19.5 9.9314 19.2204 10.2 18.875 10.2H17.625C17.2796 10.2 17 9.9314 17 9.6C17 9.2686 17.2796 9 17.625 9H18.875C19.2204 9 19.5 9.2686 19.5 9.6Z" fill="white"/>
</svg>
