<svg width="25" height="24" viewBox="0 0 25 24" fill="none" xmlns="http://www.w3.org/2000/svg">
<path d="M0.25 24L1.937 17.837C0.896 16.033 0.349 13.988 0.35 11.891C0.353 5.335 5.688 0 12.243 0C15.424 0.001 18.41 1.24 20.656 3.488C22.901 5.736 24.137 8.724 24.136 11.902C24.133 18.459 18.798 23.794 12.243 23.794C10.253 23.793 8.292 23.294 6.555 22.346L0.25 24ZM6.847 20.193C8.523 21.188 10.123 21.784 12.239 21.785C17.687 21.785 22.125 17.351 22.128 11.9C22.13 6.438 17.713 2.01 12.247 2.008C6.795 2.008 2.36 6.442 2.358 11.892C2.357 14.117 3.009 15.783 4.104 17.526L3.105 21.174L6.847 20.193ZM18.234 14.729C18.16 14.605 17.962 14.531 17.664 14.382C17.367 14.233 15.906 13.514 15.633 13.415C15.361 13.316 15.163 13.266 14.964 13.564C14.766 13.861 14.196 14.531 14.023 14.729C13.85 14.927 13.676 14.952 13.379 14.803C13.082 14.654 12.124 14.341 10.989 13.328C10.106 12.54 9.509 11.567 9.336 11.269C9.163 10.972 9.318 10.811 9.466 10.663C9.6 10.53 9.763 10.316 9.912 10.142C10.063 9.97 10.112 9.846 10.212 9.647C10.311 9.449 10.262 9.275 10.187 9.126C10.112 8.978 9.518 7.515 9.271 6.92C9.029 6.341 8.784 6.419 8.602 6.41L8.032 6.4C7.834 6.4 7.512 6.474 7.24 6.772C6.968 7.07 6.2 7.788 6.2 9.251C6.2 10.714 7.265 12.127 7.413 12.325C7.562 12.523 9.508 15.525 12.489 16.812C13.198 17.118 13.752 17.301 14.183 17.438C14.895 17.664 15.543 17.632 16.055 17.556C16.626 17.471 17.813 16.837 18.061 16.143C18.309 15.448 18.309 14.853 18.234 14.729Z" fill="white"/>
</svg>
