<svg width="37" height="37" viewBox="0 0 37 37" fill="none" xmlns="http://www.w3.org/2000/svg">
<g clip-path="url(#clip0_10788_2388)">
<path d="M18.4527 36.3839H13.1515V25.1519C12.7009 25.7555 12.4443 26.0312 12.2659 26.3468C10.5166 29.3739 8.80175 32.4193 7.01176 35.4219C6.73951 35.8784 6.13241 36.4329 5.65988 36.4452C4.28923 36.4881 2.30835 36.5004 0.93457 36.5004C0.93457 36.5004 3.70091 31.1295 4.59591 29.6037C6.02289 27.1618 7.39667 24.6893 8.92379 22.3056C10.4822 19.876 12.679 19.0426 15.2451 19.6952C17.0163 20.1456 18.4026 21.5427 18.4307 23.2677C18.5059 27.5999 18.4558 31.9352 18.4558 36.3839H18.4527Z" fill="#E99010"/>
<path d="M15.4176 1.30556V6.02998C12.911 6.02998 10.4232 6.02998 7.9385 6.02998C7.5223 6.02998 7.0748 5.94113 6.69615 6.05449C6.22988 6.19543 5.81681 6.50487 5.38183 6.74079C5.8262 6.96751 6.26117 7.36581 6.71806 7.39338C8.17321 7.48224 9.63774 7.39338 11.0929 7.44547C14.1471 7.5527 16.4315 9.78624 16.5192 12.6999C16.6068 15.6014 14.4475 18.0831 11.3996 18.221C7.97293 18.3742 4.53378 18.2547 0.981968 18.2547V13.5547C2.77508 13.5547 4.62766 13.5547 6.48023 13.5547C7.83524 13.5547 9.19337 13.6099 10.5421 13.518C10.9302 13.4904 11.29 13.0431 11.6624 12.7888C11.2963 12.5774 10.9427 12.2067 10.5672 12.1883C9.16521 12.1147 7.75387 12.173 6.34567 12.1546C2.90339 12.1086 0.487531 9.84445 0.500048 6.68564C0.512566 3.61875 2.90652 1.36377 6.2956 1.31475C9.30603 1.27185 12.3165 1.30556 15.4176 1.30556Z" fill="#E99010"/>
<path d="M35.3952 18.9324V23.6568C32.8886 23.6568 30.4007 23.6568 27.916 23.6568C27.4998 23.6568 27.0523 23.5679 26.6737 23.6813C26.2074 23.8222 25.7943 24.1317 25.3594 24.3676C25.8037 24.5943 26.2387 24.9926 26.6956 25.0202C28.1507 25.1091 29.6153 25.0202 31.0704 25.0723C34.1247 25.1795 36.4091 27.4131 36.4967 30.3268C36.5843 33.2282 34.4251 35.7099 31.3771 35.8478C27.9505 36.001 24.5113 35.8815 20.9595 35.8815V31.1816C22.7526 31.1816 24.6052 31.1816 26.4578 31.1816C27.8128 31.1816 29.1709 31.2367 30.5197 31.1448C30.9077 31.1172 31.2676 30.6699 31.64 30.4156C31.2738 30.2042 30.9202 29.8335 30.5447 29.8151C29.1427 29.7416 27.7314 29.7998 26.3232 29.7814C22.8809 29.7354 20.4651 27.4713 20.4776 24.3155C20.4901 21.2486 22.8841 18.9937 26.2731 18.9446C29.2836 18.9017 32.294 18.9354 35.3952 18.9354V18.9324Z" fill="#E99010"/>
<path d="M36.5 4.27756V17.5041C35.1731 17.5102 33.84 17.498 32.5038 17.498V5.69305C31.5462 9.04182 30.7138 12.0199 29.8407 14.9795C29.2148 17.0997 27.8129 17.9392 26.0605 17.3509C24.9652 16.9833 24.4582 15.9875 24.1171 14.7773C23.2879 11.8483 22.4492 8.92233 21.5073 5.61033V17.3908H17.5612C17.5612 12.8931 17.4923 8.46275 17.5925 4.03858C17.6363 2.1482 18.96 0.836881 20.6248 0.573392C22.8279 0.227179 24.4082 1.12182 25.0434 3.26956C25.6224 5.23348 26.0573 7.26173 26.5549 9.25935C26.6738 9.72812 26.8053 10.1877 27.0368 11.0548C27.6502 8.54548 28.1634 6.40999 28.6891 4.2745C29.3744 1.48948 30.573 0.426328 32.9106 0.515179C34.9228 0.591775 36.259 1.98582 36.5 4.27756Z" fill="#E99010"/>
</g>
<defs>
<clipPath id="clip0_10788_2388">
<rect width="36" height="36" fill="white" transform="translate(0.5 0.5)"/>
</clipPath>
</defs>
</svg>
